<svg xmlns="http://www.w3.org/2000/svg" viewBox="0 0 1024 1024" fill="none">
  <path
    fill="#000"
    d="M106.391956 89.773858v844.452284c0 49.493032 40.280826 89.773858 89.773858 89.773858h631.668372c49.493032 0 89.773858-40.280826 89.773858-89.773858V89.773858C917.608044 40.280826 877.327218 0 827.834186 0H196.165814C146.672782 0 106.391956 40.280826 106.391956 89.773858z m693.444347 861.97354H224.163697c-25.107779 0-45.519139-20.41136-45.519139-45.519139V117.771741c0-25.107779 20.41136-45.519139 45.519139-45.519139h575.491974c25.107779 0 45.519139 20.41136 45.519139 45.519139v788.275886c0.180632 25.288411-20.230729 45.699771-45.338507 45.699771z"
  />
  <path
    fill="#000"
    d="M316.647028 530.695361c-4.335156 0-8.850944-0.722526-13.005469-2.528841-13.908626-5.418945-23.120833-18.785676-23.120832-33.59746V206.823073c0-19.869466 16.256835-36.126301 36.126301-36.126301s36.126301 16.256835 36.126301 36.126301v194.720762l50.757452-75.142706c6.683366-7.405892 16.256835-11.560416 26.3722-11.741048 9.934733 0 19.688834 3.973893 26.552831 11.199153l56.537661 78.394073v-130.235314c0-19.869466 16.256835-36.126301 36.126301-36.126301s36.126301 16.256835 36.126301 36.126301v220.551067c0 14.811783-9.031575 27.997883-22.759569 33.59746-13.727994 5.418945-29.442935 1.986947-39.5583-8.670313l-92.122067-115.784794-87.60628 115.2429c-6.863997 7.586523-16.618098 11.741048-26.552831 11.741048z"
  />
</svg>
