<?xml version="1.0" encoding="UTF-8"?>
<svg width="18" height="18" viewBox="0 0 18 18" fill="none" xmlns="http://www.w3.org/2000/svg">

  <!-- Pump head (moved up, tighter) -->
  <path d="M6.1 2.4c0-.6.5-1.1 1.1-1.1h2.6c.6 0 1.1.5 1.1 1.1v.4H6.1v-.4Z" fill="currentColor"/>
  <path d="M7.0 3.1h4.0c.4 0 .7.3.7.7v.4c0 .4-.3.7-.7.7H7.0c-.4 0-.7-.3-.7-.7v-.4c0-.4.3-.7.7-.7Z" fill="currentColor"/>
  <path d="M10.6 2.2h3.1c.3 0 .6.2.6.6 0 .2-.1.4-.3.5l-1.9 1.0c-.1.1-.2.1-.3.1h-1.2V2.2Z" fill="currentColor"/>

  <!-- Neck -->
  <path d="M6.8 5.0h4.4c.4 0 .7.3.7.7v.7H6.1v-.7c0-.4.3-.7.7-.7Z" fill="currentColor"/>

  <!-- Body (expanded) -->
  <path d="M5.7 6.3h6.6c1.0 0 1.8.8 1.8 1.8v5.6c0 1.2-1.0 2.2-2.2 2.2H5.9c-1.2 0-2.2-1.0-2.2-2.2V8.1c0-1.0.8-1.8 1.8-1.8Z"
        fill="currentColor"/>

  <!-- Green leaf -->
  <path d="M13.4 7.0c-1.7 0-3.1.7-4.5 2.1-1.1 1.1-1.9 2.5-2.6 4.2-.2.4.1.8.6.8h2.8c2.0 0 3.6-1.1 4.3-2.8.4-1.1.6-2.3.6-3.6 0-.4-.3-.7-.7-.7h-.5Z"
        fill="#34C759"/>

  <!-- Leaf vein -->
  <path d="M13.1 7.4c-1.5.1-2.8.8-4.0 2.0-1.0 1.0-1.8 2.3-2.4 3.8"
        stroke="#248A3D" stroke-width=".7" stroke-linecap="round"/>

</svg>