<svg xmlns="http://www.w3.org/2000/svg" viewBox="0 0 1511 1511" fill="none" aria-hidden="true">
  <g transform="translate(0 243.5)">
    <path
      fill="#000"
      d="M181.140794 0h199.624549l77.631769 292.043321c14.787004 62.844765 29.574007 129.386282 48.057762 195.927798h3.696751c14.787004-66.541516 29.574007-133.083032 48.057761-195.927798L639.537906 0h192.231047l-207.01805 635.841155h-229.198556L181.140794 0zM743.046931 927.884477l96.115524-133.083033c62.844765 48.057762 118.296029 70.238267 173.747292 70.238267s81.32852-22.180505 81.32852-55.451263c0-40.66426-66.541516-59.148014-136.779783-88.722022-81.32852-33.270758-177.444043-88.722022-177.444044-199.624549 0-129.386282 103.509025-218.108303 262.469315-218.108303 107.205776 0 184.837545 44.361011 243.985559 88.722022L1190.353791 517.545126c-48.057762-33.270758-96.115523-59.148014-140.476535-59.148014-48.057762 0-70.238267 18.483755-70.238267 48.057762 0 40.66426 62.844765 55.451264 133.083033 81.32852 85.025271 33.270758 181.140794 81.32852 181.140794 203.321299 0 125.689531-99.812274 221.805054-284.64982 221.805054-92.418773 11.090253-195.927798-29.574007-266.166065-85.02527zM1471.306859 129.386282H983.33574l-25.877256 59.148014h-66.541516l73.935018-188.534296h547.119133zM66.541516 872.433213H554.512635l25.877257-55.451264h70.238267l-73.935018 184.837546H29.574007z"
    />
  </g>
</svg>
